<svg xmlns="http://www.w3.org/2000/svg" xmlns:xlink="http://www.w3.org/1999/xlink" width="1024" zoomAndPan="magnify" viewBox="0 0 768 767.999994" height="1024" preserveAspectRatio="xMidYMid meet" version="1.0"><defs><clipPath id="cb14d0fdd2"><path d="M 0.632812 0.632812 L 405.367188 0.632812 L 405.367188 405.367188 L 0.632812 405.367188 Z M 0.632812 0.632812 " clip-rule="nonzero"/></clipPath><clipPath id="2476387ae9"><path d="M 75.632812 0.632812 L 330.367188 0.632812 C 371.789062 0.632812 405.367188 34.210938 405.367188 75.632812 L 405.367188 330.367188 C 405.367188 371.789062 371.789062 405.367188 330.367188 405.367188 L 75.632812 405.367188 C 34.210938 405.367188 0.632812 371.789062 0.632812 330.367188 L 0.632812 75.632812 C 0.632812 34.210938 34.210938 0.632812 75.632812 0.632812 Z M 75.632812 0.632812 " clip-rule="nonzero"/></clipPath><clipPath id="2b6a5acded"><path d="M 0.632812 0.632812 L 405.367188 0.632812 L 405.367188 405.367188 L 0.632812 405.367188 Z M 0.632812 0.632812 " clip-rule="nonzero"/></clipPath><clipPath id="cc932f667f"><path d="M 75.632812 0.632812 L 330.367188 0.632812 C 371.789062 0.632812 405.367188 34.210938 405.367188 75.632812 L 405.367188 330.367188 C 405.367188 371.789062 371.789062 405.367188 330.367188 405.367188 L 75.632812 405.367188 C 34.210938 405.367188 0.632812 371.789062 0.632812 330.367188 L 0.632812 75.632812 C 0.632812 34.210938 34.210938 0.632812 75.632812 0.632812 Z M 75.632812 0.632812 " clip-rule="nonzero"/></clipPath><clipPath id="78dcc54e53"><rect x="0" width="406" y="0" height="406"/></clipPath><clipPath id="c31272a36e"><path d="M 103.011719 103.011719 L 302.988281 103.011719 L 302.988281 302.988281 L 103.011719 302.988281 Z M 103.011719 103.011719 " clip-rule="nonzero"/></clipPath><clipPath id="5f484ee128"><path d="M 203 103.011719 C 147.777344 103.011719 103.011719 147.777344 103.011719 203 C 103.011719 258.222656 147.777344 302.988281 203 302.988281 C 258.222656 302.988281 302.988281 258.222656 302.988281 203 C 302.988281 147.777344 258.222656 103.011719 203 103.011719 Z M 203 103.011719 " clip-rule="nonzero"/></clipPath><clipPath id="ca4ddb1da6"><path d="M 0.0117188 0.0117188 L 199.988281 0.0117188 L 199.988281 199.988281 L 0.0117188 199.988281 Z M 0.0117188 0.0117188 " clip-rule="nonzero"/></clipPath><clipPath id="f93cc92c53"><path d="M 100 0.0117188 C 44.777344 0.0117188 0.0117188 44.777344 0.0117188 100 C 0.0117188 155.222656 44.777344 199.988281 100 199.988281 C 155.222656 199.988281 199.988281 155.222656 199.988281 100 C 199.988281 44.777344 155.222656 0.0117188 100 0.0117188 Z M 100 0.0117188 " clip-rule="nonzero"/></clipPath><clipPath id="ef389e2cbf"><rect x="0" width="200" y="0" height="200"/></clipPath><clipPath id="6205b478e9"><rect x="0" width="406" y="0" height="406"/></clipPath></defs><g transform="matrix(1, 0, 0, 1, 181, 181)"><g clip-path="url(#6205b478e9)"><g clip-path="url(#cb14d0fdd2)"><g clip-path="url(#2476387ae9)"><g transform="matrix(1, 0, 0, 1, 0, -0.000000000000056843)"><g clip-path="url(#78dcc54e53)"><g clip-path="url(#2b6a5acded)"><g clip-path="url(#cc932f667f)"><path fill="#000000" d="M 0.632812 0.632812 L 405.367188 0.632812 L 405.367188 405.367188 L 0.632812 405.367188 Z M 0.632812 0.632812 " fill-opacity="1" fill-rule="nonzero"/></g></g></g></g></g></g><g clip-path="url(#c31272a36e)"><g clip-path="url(#5f484ee128)"><g transform="matrix(1, 0, 0, 1, 103, 103)"><g clip-path="url(#ef389e2cbf)"><g clip-path="url(#ca4ddb1da6)"><g clip-path="url(#f93cc92c53)"><path fill="#ffffff" d="M 0.0117188 0.0117188 L 199.988281 0.0117188 L 199.988281 199.988281 L 0.0117188 199.988281 Z M 0.0117188 0.0117188 " fill-opacity="1" fill-rule="nonzero"/></g></g></g></g></g></g></g></g></svg>