<svg xmlns="http://www.w3.org/2000/svg" xmlns:xlink="http://www.w3.org/1999/xlink" width="1024" zoomAndPan="magnify" viewBox="0 0 768 767.999994" height="1024" preserveAspectRatio="xMidYMid meet" version="1.0"><defs><g/><clipPath id="b07fd327fc"><path d="M 0.671875 82.851562 L 447.328125 82.851562 L 447.328125 529.507812 L 0.671875 529.507812 Z M 0.671875 82.851562 " clip-rule="nonzero"/></clipPath><clipPath id="b2a5552716"><path d="M 224 82.851562 C 100.660156 82.851562 0.671875 182.839844 0.671875 306.179688 C 0.671875 429.519531 100.660156 529.507812 224 529.507812 C 347.339844 529.507812 447.328125 429.519531 447.328125 306.179688 C 447.328125 182.839844 347.339844 82.851562 224 82.851562 Z M 224 82.851562 " clip-rule="nonzero"/></clipPath><clipPath id="0c9bafe0d2"><path d="M 0.671875 0.851562 L 447.328125 0.851562 L 447.328125 447.507812 L 0.671875 447.507812 Z M 0.671875 0.851562 " clip-rule="nonzero"/></clipPath><clipPath id="b8f8d42d60"><path d="M 224 0.851562 C 100.660156 0.851562 0.671875 100.839844 0.671875 224.179688 C 0.671875 347.519531 100.660156 447.507812 224 447.507812 C 347.339844 447.507812 447.328125 347.519531 447.328125 224.179688 C 447.328125 100.839844 347.339844 0.851562 224 0.851562 Z M 224 0.851562 " clip-rule="nonzero"/></clipPath><clipPath id="fd36bdc636"><rect x="0" width="448" y="0" height="448"/></clipPath><clipPath id="d2ffc59f24"><path d="M 96 0.921875 L 356 0.921875 L 356 581 L 96 581 Z M 96 0.921875 " clip-rule="nonzero"/></clipPath><clipPath id="a6b184fa72"><rect x="0" width="260" y="0" height="581"/></clipPath><clipPath id="5d52c95631"><rect x="0" width="448" y="0" height="581"/></clipPath></defs><g transform="matrix(1, 0, 0, 1, 160, 91)"><g clip-path="url(#5d52c95631)"><g clip-path="url(#b07fd327fc)"><g clip-path="url(#b2a5552716)"><g transform="matrix(1, 0, 0, 1, 0, 82)"><g clip-path="url(#fd36bdc636)"><g clip-path="url(#0c9bafe0d2)"><g clip-path="url(#b8f8d42d60)"><path fill="#000000" d="M 0.671875 0.851562 L 447.328125 0.851562 L 447.328125 447.507812 L 0.671875 447.507812 Z M 0.671875 0.851562 " fill-opacity="1" fill-rule="nonzero"/></g></g></g></g></g></g><g clip-path="url(#d2ffc59f24)"><g transform="matrix(1, 0, 0, 1, 96, -0.000000000000056843)"><g clip-path="url(#a6b184fa72)"><g fill="#ffffff" fill-opacity="1"><g transform="translate(0.568076, 447.754737)"><g><path d="M 117.109375 -38.90625 L 6.75 -105.609375 L 6.75 -185.796875 L 117.109375 -252.09375 L 117.109375 -182.21875 L 50.8125 -145.296875 L 117.109375 -107.984375 Z M 117.109375 -38.90625 "/></g></g></g><g fill="#ffffff" fill-opacity="1"><g transform="translate(128.001112, 447.754737)"><g><path d="M 10.328125 -38.90625 L 10.328125 -107.984375 L 76.625 -145.296875 L 10.328125 -182.21875 L 10.328125 -252.09375 L 120.6875 -185.796875 L 120.6875 -105.609375 Z M 10.328125 -38.90625 "/></g></g></g></g></g></g></g></g></svg>