<?xml version="1.0" encoding="UTF-8"?>
<svg id="Layer_3" data-name="Layer 3" xmlns="http://www.w3.org/2000/svg" viewBox="0 0 831.06 177.57">
  <defs>
    <style>
      .cls-1 {
        font-family: HelveticaNeue-Medium, 'Helvetica Neue';
        font-size: 35.33px;
        font-weight: 500;
      }

      .cls-1, .cls-2 {
        fill: #badaa0;
      }
    </style>
  </defs>
  <g id="Layer_1" data-name="Layer 1">
    <g>
      <text class="cls-1" transform="translate(802.8 66.34)"><tspan x="0" y="0">®</tspan></text>
      <path class="cls-2" d="M191.65,13.4c-8.36-8.28-19.88-13.4-32.53-13.4h-54.52c-6.63,0-11.97,5.35-11.97,11.97v3.09c0,4.89-3.92,8.81-8.81,8.81h-37.88c-12.65,0-24.17,5.2-32.46,13.48C5.12,45.71,0,57.16,0,69.88v61.75c0,12.73,5.12,24.17,13.48,32.53,8.28,8.28,19.8,13.4,32.46,13.4h54.52c6.63,0,11.97-5.35,11.97-11.9v-3.16c0-4.82,3.99-8.81,8.81-8.81h37.88c12.65,0,24.17-5.12,32.53-13.48,8.28-8.36,13.4-19.8,13.4-32.46v-61.83c0-12.73-5.12-24.17-13.4-32.53ZM181.49,121.17c0,4.22-3.46,7.68-7.68,7.68h-50.76c-6.78,0-12.28,5.5-12.28,12.27v3.16c0,5.05-4.14,9.19-9.19,9.19H31.33c-4.29,0-7.76-3.46-7.76-7.76V56.48c0-4.29,3.46-7.76,7.76-7.76h50.68c6.85,0,12.35-5.5,12.35-12.27v-3.16c0-5.04,4.07-9.19,9.19-9.19h70.26c4.22,0,7.68,3.46,7.68,7.76v89.31Z"/>
      <g>
        <rect class="cls-2" x="276.13" y="24.1" width=".17" height=".17"/>
        <polygon class="cls-2" points="344.84 133.92 344.84 151.56 255.04 151.56 255.04 24.27 276.13 24.27 276.13 133.92 344.84 133.92"/>
        <rect class="cls-2" x="276.13" y="24.1" width=".17" height=".17"/>
        <path class="cls-2" d="M435.15,58.34v93.21h-18.35v-10.52l-.33.37c-2.8,3.36-6.06,6.05-9.81,7.96-5.41,2.75-11.71,4.1-18.85,4.1h-.01c-6.34-.01-11.71-.79-16.12-2.47-4.36-1.65-7.98-4.03-10.74-7.18-2.75-3.11-4.7-6.83-5.79-11.07-1.08-4.16-1.6-8.73-1.6-13.71v-60.7h19.27v62.43c0,2.57.38,4.81,1.14,6.76.75,1.93,1.86,3.58,3.35,5.01,1.5,1.42,3.26,2.48,5.35,3.21,2.1.72,4.54,1.11,7.34,1.11,4.54,0,8.39-.67,11.55-1.94,3.22-1.29,5.83-3.08,7.93-5.39,2.11-2.33,3.7-5.05,4.78-8.23,1.08-3.18,1.63-6.68,1.63-10.54v-52.4h19.26Z"/>
        <polygon class="cls-2" points="461.8 140.8 461.8 140.8 461.8 140.8 461.8 140.8"/>
        <path class="cls-2" d="M461.98,140.78l-.16.04-.13.03-.04.03h-.01v-.03l.13-.06h.04s.16-.07.16-.07h0s.01.04.01.06Z"/>
        <path class="cls-2" d="M479.86,75.13v53.65c0,1.59.16,2.81.38,3.56h0c.2.67.48,1.05.96,1.38h0c.48.34,1.36.67,2.7.81,1.39.16,3.29.26,5.66.26h9.01v16.77h-13.72c-4.07,0-7.61-.26-10.6-.81-3.08-.55-5.69-1.6-7.75-3.22-2.07-1.63-3.59-3.95-4.53-6.74l-.16.04s-.01-.01-.01-.03h0s.16-.07.16-.07c-.94-2.82-1.36-6.33-1.36-10.62v-54.98h-15.99v-16.79h15.99v-26.81h19.26v26.81h18.72v16.79h-18.72Z"/>
        <path class="cls-2" d="M461.98,140.78l-.16.04-.13.03-.04.03h-.01v-.03s0-.01-.01-.03l.14-.03h.04s.16-.07.16-.07h0s.01.04.01.06Z"/>
        <path class="cls-2" d="M593.45,90.86v60.7h-19.27v-62.43c0-2.57-.38-4.81-1.14-6.74-.75-1.94-1.86-3.59-3.35-5.01-1.5-1.42-3.26-2.48-5.35-3.22-2.1-.72-4.54-1.11-7.34-1.11-4.54,0-8.39.67-11.55,1.94-3.22,1.29-5.83,3.08-7.93,5.39-2.11,2.34-3.7,5.07-4.78,8.23-1.08,3.18-1.62,6.68-1.62,10.54v52.4h-19.27V24.27h19.27v43.03l.3-.35c.62-.7,1.28-1.38,1.99-2,2.33-2.02,4.94-3.69,7.83-4.97,2.87-1.26,5.85-2.2,8.96-2.81,3.08-.6,6.07-.89,9-.89,6.34,0,11.72.82,16.15,2.54,4.34,1.72,7.96,4.13,10.73,7.27,2.74,3.11,4.68,6.84,5.78,11.07,1.08,4.16,1.6,8.73,1.6,13.71Z"/>
        <path class="cls-2" d="M696.73,91.85c-1.32-6.22-3.72-11.99-7.18-17.26-3.49-5.32-8.15-9.71-13.88-13.13-2.95-1.75-6.24-3.05-9.88-3.92-3.63-.85-7.61-1.28-11.91-1.28h-.01c-6.64,0-12.82,1.19-18.46,3.6-5.62,2.4-10.52,5.79-14.62,10.13-4.12,4.33-7.32,9.45-9.58,15.31-2.27,5.89-3.41,12.36-3.41,19.36v.09c.26,6.95,1.33,13.41,3.28,19.37,1.96,5.99,4.91,11.2,8.86,15.55,3.95,4.37,8.83,7.76,14.58,10.16,5.8,2.43,12.57,3.62,20.28,3.62h.03c10.86,0,20.08-2.58,27.45-7.86.06-.03.11-.07.17-.11,3.72-2.68,6.8-6.05,9.2-10.03s4.13-8.59,5.19-13.78l.47-2.3h-19.13l-.34,1.49c-.62,2.77-1.58,5.12-2.82,7.1-1.25,1.99-2.78,3.6-4.67,4.9-3.79,2.61-8.73,3.99-15,3.99-4.88,0-9.04-.78-12.5-2.27-3.55-1.52-6.39-3.52-8.6-6-2.26-2.51-3.86-5.36-4.88-8.63-.82-2.7-1.26-5.53-1.35-8.5v-.18h70.24l.09-1.82c.04-.89.06-1.8.06-2.71,0-4.77-.55-9.74-1.65-14.89ZM628.19,94.49l.03-.21c.35-2.41,1.01-4.71,1.96-6.9,1.25-2.84,2.92-5.31,5.05-7.45,2.11-2.11,4.66-3.79,7.65-5.04,2.95-1.21,6.3-1.85,10.09-1.85s6.94.62,9.91,1.85c3.01,1.25,5.58,2.91,7.76,4.98,2.19,2.07,3.92,4.54,5.21,7.44.99,2.23,1.67,4.56,2.04,6.97l.03.21h-49.73Z"/>
        <path class="cls-2" d="M792.1,90.86v60.7h-19.27v-62.43c0-2.57-.4-4.81-1.15-6.74-.75-1.94-1.84-3.59-3.35-5.01-1.49-1.42-3.25-2.48-5.35-3.22-2.09-.72-4.53-1.11-7.32-1.11-4.54,0-8.39.67-11.55,1.94-3.22,1.29-5.83,3.08-7.93,5.39-2.13,2.34-3.72,5.07-4.78,8.23-1.08,3.18-1.63,6.68-1.63,10.54v52.4h-19.26V58.34h18.35v10.54l.31-.38c2.75-3.31,5.99-5.97,9.69-7.95,5.41-2.88,11.77-4.29,18.97-4.29h.01c6.34,0,11.71.82,16.14,2.54,4.36,1.72,7.96,4.13,10.73,7.27,2.75,3.11,4.68,6.84,5.78,11.07,1.08,4.16,1.62,8.73,1.62,13.71Z"/>
      </g>
    </g>
  </g>
</svg>