<?xml version="1.0" encoding="UTF-8"?>
<svg id="Layer_3" data-name="Layer 3" xmlns="http://www.w3.org/2000/svg" viewBox="0 0 204.1 204.18">
  <defs>
    <style>
      .cls-1 {
        fill: #dcff9b;
      }
    </style>
  </defs>
  <g id="Layer_1" data-name="Layer 1">
    <path class="cls-1" d="M7.32,161.4c-9.76,9.76-9.76,25.7,0,35.46,9.76,9.76,25.7,9.76,35.46,0,9.76-9.76,9.76-25.7,0-35.46-9.76-9.76-25.7-9.76-35.46,0M49.06,123.6c-8.72,8.72-8.73,22.79,0,31.52,8.72,8.72,22.8,8.72,31.52,0,8.73-8.73,8.73-22.8,0-31.52-8.73-8.73-22.8-8.72-31.52,0M89.02,163.56c-8.72,8.72-8.72,22.8,0,31.52,8.72,8.72,22.8,8.72,31.52,0,8.73-8.73,8.73-22.8,0-31.52-8.73-8.73-22.8-8.73-31.53,0M9.19,83.73c-8.72,8.72-8.72,22.8,0,31.52,8.73,8.73,22.8,8.72,31.52,0,8.73-8.73,8.73-22.8,0-31.52-8.63-8.63-22.8-8.72-31.52,0M90.8,85.79c-7.6,7.6-7.59,19.98,0,27.58,7.6,7.6,19.98,7.6,27.58,0,7.6-7.6,7.6-19.98,0-27.57-7.6-7.6-19.89-7.7-27.58,0M130.77,125.75c-7.6,7.6-7.59,19.98,0,27.58,7.6,7.6,19.98,7.6,27.58,0,7.6-7.6,7.6-19.98,0-27.57-7.6-7.6-19.89-7.7-27.58,0M50.84,45.83c-7.6,7.6-7.6,19.98,0,27.58,7.6,7.6,19.98,7.6,27.58,0,7.6-7.6,7.59-19.98,0-27.58-7.5-7.7-19.88-7.69-27.57,0M10.79,5.77c-7.6,7.6-7.6,19.98,0,27.58,7.6,7.6,19.98,7.6,27.58,0,7.6-7.6,7.59-19.98,0-27.58-7.5-7.7-19.88-7.69-27.57,0M170.83,165.81c-7.6,7.6-7.6,19.98,0,27.58,7.6,7.6,19.98,7.6,27.58,0,7.6-7.6,7.59-19.98,0-27.58-7.6-7.6-19.88-7.69-27.57,0M132.65,47.89c-6.57,6.57-6.48,17.17,0,23.64,6.47,6.47,17.17,6.48,23.64,0,6.56-6.56,6.46-17.17,0-23.64-6.48-6.48-17.07-6.57-23.64,0M92.78,8.02c-6.57,6.57-6.48,17.17,0,23.64,6.57,6.57,17.17,6.48,23.64,0,6.56-6.56,6.47-17.16,0-23.64-6.47-6.47-17.07-6.56-23.63,0M172.42,87.67c-6.57,6.57-6.48,17.17,0,23.64,6.57,6.57,17.17,6.48,23.64,0,6.56-6.56,6.47-17.16,0-23.64-6.47-6.47-17.07-6.56-23.63,0M170.92,13.56c-5.44,5.44-5.44,14.26,0,19.7,5.44,5.44,14.26,5.44,19.7,0s5.44-14.26,0-19.7c-5.44-5.44-14.26-5.44-19.7,0"/>
  </g>
</svg>